<svg viewBox="0 0 224.997 242.989">
  <path
    fill-rule="evenodd"
    clip-rule="evenodd"
    d="M198.332,237.694c-20.498,9.383-41.451,7.152-50.671-13.645
L63.952,35.324c0,0-17.14,20.857-25.569,25.457c-8.446,4.599-28.49,6.445-37.928,6.538L0,66.057
c8.294-1.985,25.79-6.93,34.637-12.552c8.825-5.637,14.101-22.48,16.814-29.741C65.567-13.928,85.626,4.508,85.626,4.508
l0.236-0.117l33.923,76.501l7.771-3.536c2.184-1.016,4.73-0.024,5.73,2.199c0.971,2.208,0,4.823-2.183,5.815l-7.763,3.546
L128.674,101l7.782-3.564c2.169-0.992,4.746,0,5.731,2.214c0.986,2.207,0.016,4.808-2.168,5.8l-7.824,3.56l-3.542-7.986
l-7.769,3.558c-2.189,0.976-3.168,3.591-2.189,5.783c0.993,2.252,3.555,3.215,5.738,2.223l7.793-3.577l5.395,12.108l7.781-3.571
c2.168-0.977,4.73,0,5.717,2.223c0.97,2.208,0,4.814-2.184,5.808l-7.794,3.575l-3.53-8.023l-7.795,3.555
c-2.199,1.008-3.17,3.608-2.199,5.831c0.971,2.199,3.548,3.199,5.732,2.199l7.792-3.562l5.271,11.81l7.768-3.572
c2.186-1,4.762,0,5.732,2.23c0.986,2.199,0,4.799-2.183,5.783l-7.778,3.6l-3.559-8.019l-7.799,3.542
c-2.198,1-3.153,3.615-2.167,5.83c0.954,2.185,3.532,3.2,5.716,2.185l7.809-3.538l22.576,50.852
c12.099,6.322,15.859-7.229,15.859-7.229l-8.278-18.627l-11.705-30.763c-1.577-4.416-3.821-14.098-3.821-14.098
s-6.171-29.564-5.792-51.913c-4.353-4.961-6.367-9.214-4.882-11.575c2.973-4.76,18.846-0.016,35.463,10.599
c16.572,10.629,27.641,23.087,24.669,27.879c-1.273,2.046-5.003,2.238-10.038,1.084c-8.171,32.086,14.769,77.201,14.769,77.201
c0.152,0.308,3.108,7.753,3.108,7.753C231.111,210.961,218.831,228.342,198.332,237.694z M123.312,88.929l-3.563-8.019l-7.778,3.559
c-2.184,0.993-3.161,3.607-2.184,5.799c0.992,2.223,3.556,3.215,5.738,2.223L123.312,88.929z"
  />
</svg>
